<svg width="24" height="24" viewBox="0 0 24 24" fill="none" xmlns="http://www.w3.org/2000/svg">
<path d="M1.32216 24C0.952744 23.9994 0.600579 23.8435 0.35159 23.5706C0.09801 23.2998 -0.027995 22.9337 0.00523848 22.5642L0.327885 19.0154L15.2328 4.11162L19.8908 8.76955L4.9898 23.672L1.442 23.9947C1.40118 23.9987 1.36035 24 1.32216 24ZM20.8206 7.83822L16.1639 3.1803L18.9571 0.386342C19.2041 0.138986 19.5393 0 19.8888 0C20.2384 0 20.5735 0.138986 20.8206 0.386342L23.6138 3.1803C23.861 3.42739 24 3.76266 24 4.11228C24 4.4619 23.861 4.79718 23.6138 5.04426L20.8219 7.83691L20.8206 7.83822Z" fill="#3C3C3C"/>
</svg>
