<svg width="26" height="24" viewBox="0 0 26 24" fill="none" xmlns="http://www.w3.org/2000/svg">
<path d="M9.1 0C5.51015 0 2.6 2.98477 2.6 6.66667C2.6 10.3486 5.51015 13.3333 9.1 13.3333C12.6898 13.3333 15.6 10.3486 15.6 6.66667C15.6 2.98477 12.6898 0 9.1 0ZM5.2 6.66667C5.2 4.45753 6.94609 2.66667 9.1 2.66667C11.2539 2.66667 13 4.45753 13 6.66667C13 8.87581 11.2539 10.6667 9.1 10.6667C6.94609 10.6667 5.2 8.87581 5.2 6.66667Z" fill="#3C3C3C"/>
<path d="M19.3809 6.9577C19.0152 6.76645 18.6105 6.66675 18.2 6.66675V4.00008C19.0211 4.00008 19.8305 4.19942 20.562 4.58193C20.6425 4.62406 20.7219 4.66828 20.8 4.71453C21.431 5.08818 21.9793 5.59425 22.4085 6.20074C22.8908 6.8823 23.2088 7.67129 23.3366 8.50316C23.4644 9.33502 23.3984 10.1861 23.1438 10.9867C22.8893 11.7874 22.4535 12.5148 21.8721 13.1095C21.2908 13.7042 20.5804 14.1492 19.7991 14.4082C19.1039 14.6387 18.3701 14.7159 17.6456 14.6363C17.5559 14.6264 17.4664 14.6141 17.3771 14.5995C16.5669 14.4663 15.799 14.1384 15.1361 13.6425L15.1347 13.6415L16.6674 11.4874C16.999 11.7356 17.3832 11.8997 17.7886 11.9663C18.1939 12.033 18.6089 12.0002 18.9995 11.8707C19.3902 11.7412 19.7453 11.5187 20.036 11.2214C20.3267 10.924 20.5446 10.5603 20.6718 10.16C20.7991 9.7597 20.8321 9.33418 20.7682 8.91826C20.7043 8.50234 20.5453 8.10785 20.3042 7.76708C20.0631 7.42632 19.7467 7.14896 19.3809 6.9577Z" fill="#3C3C3C"/>
<path d="M23.3975 24C23.3975 23.3 23.2631 22.6068 23.0019 21.96C22.7407 21.3132 22.3578 20.7256 21.8752 20.2306C21.3926 19.7355 20.8196 19.3429 20.189 19.075C19.5584 18.8071 18.8825 18.6692 18.2 18.6692V16C19.0867 16 19.9659 16.1551 20.8 16.4575C20.9294 16.5045 21.0578 16.555 21.1849 16.609C22.1313 17.011 22.9911 17.6003 23.7154 18.3431C24.4397 19.086 25.0143 19.9679 25.4063 20.9385C25.4589 21.0689 25.5081 21.2006 25.5539 21.3333C25.8488 22.1888 26 23.0906 26 24H23.3975Z" fill="#3C3C3C"/>
<path d="M18.2 24H15.6C15.6 20.3181 12.6899 17.3333 9.1 17.3333C5.51015 17.3333 2.6 20.3181 2.6 24H0C0 18.8453 4.07421 14.6667 9.1 14.6667C14.1258 14.6667 18.2 18.8453 18.2 24Z" fill="#3C3C3C"/>
</svg>
